<?xml version="1.0" standalone="no"?>
<!DOCTYPE svg PUBLIC "-//W3C//DTD SVG 20010904//EN"
 "http://www.w3.org/TR/2001/REC-SVG-20010904/DTD/svg10.dtd">
<svg version="1.0" xmlns="http://www.w3.org/2000/svg"
 width="330.000000pt" height="150.000000pt" viewBox="0 0 330.000000 150.000000"
 preserveAspectRatio="xMidYMid meet">

<g transform="translate(0.000000,150.000000) scale(0.100000,-0.100000)"
fill="#000000" stroke="none">
<path d="M406 1018 c-22 -30 -20 -54 5 -79 27 -27 66 -21 92 12 17 24 18 30 6
55 -19 40 -79 47 -103 12z"/>
<path d="M607 1022 c-23 -25 -21 -58 3 -82 24 -24 48 -25 78 -4 26 18 30 65 6
88 -21 22 -67 20 -87 -2z"/>
<path d="M1527 924 c-8 -8 1 -24 14 -24 5 0 9 7 9 15 0 15 -12 20 -23 9z"/>
<path d="M1930 815 c0 -70 4 -115 10 -115 6 0 10 26 10 59 0 41 5 65 16 75 34
35 54 8 54 -71 0 -35 4 -63 10 -63 13 0 13 111 0 144 -10 26 -43 36 -55 16
-12 -19 -25 1 -25 36 0 19 -4 34 -10 34 -6 0 -10 -45 -10 -115z"/>
<path d="M2580 914 c0 -9 5 -14 12 -12 18 6 21 28 4 28 -9 0 -16 -7 -16 -16z"/>
<path d="M1320 810 c0 -67 4 -110 10 -110 6 0 10 43 10 110 0 67 -4 110 -10
110 -6 0 -10 -43 -10 -110z"/>
<path d="M1600 881 c0 -11 -6 -22 -12 -25 -10 -5 -10 -7 0 -12 7 -3 12 -25 12
-53 0 -49 21 -91 46 -91 20 0 17 13 -6 28 -26 16 -30 112 -5 112 8 0 15 4 15
9 0 5 -7 11 -15 15 -8 3 -15 12 -15 21 0 8 -4 15 -10 15 -5 0 -10 -9 -10 -19z"/>
<path d="M2240 885 c0 -9 -7 -18 -15 -21 -8 -4 -15 -10 -15 -15 0 -5 7 -9 15
-9 12 0 15 -13 15 -60 0 -50 3 -61 21 -70 26 -15 40 -3 16 14 -23 18 -25 116
-2 116 8 0 15 5 15 10 0 6 -7 10 -15 10 -8 0 -15 9 -15 20 0 11 -4 20 -10 20
-5 0 -10 -7 -10 -15z"/>
<path d="M2922 872 c-8 -17 -9 -28 -2 -30 5 -2 10 -27 10 -56 0 -53 19 -86 48
-86 18 0 14 14 -8 28 -26 16 -30 112 -5 112 8 0 15 4 15 9 0 5 -7 11 -15 15
-8 3 -15 12 -15 21 0 24 -14 18 -28 -13z"/>
<path d="M323 872 c-19 -12 -31 -55 -22 -79 16 -42 93 -42 108 0 9 24 -3 67
-22 79 -7 4 -21 8 -32 8 -11 0 -25 -4 -32 -8z"/>
<path d="M710 860 c-40 -40 -16 -100 40 -100 35 0 60 23 60 56 0 29 -33 64
-60 64 -11 0 -29 -9 -40 -20z"/>
<path d="M1400 856 c-21 -27 -8 -60 33 -79 26 -12 37 -23 35 -35 -5 -24 -36
-27 -59 -6 -25 22 -33 14 -13 -14 20 -29 69 -30 84 -2 16 31 3 59 -36 75 -35
15 -45 41 -19 52 9 3 25 -3 35 -12 16 -15 20 -15 20 -4 0 36 -56 53 -80 25z"/>
<path d="M1810 855 c-18 -22 -23 -96 -8 -125 18 -34 61 -39 82 -9 20 30 12 37
-15 14 -30 -28 -53 -9 -57 46 -4 56 18 78 56 53 30 -20 36 -14 16 14 -17 25
-56 29 -74 7z"/>
<path d="M2096 854 c-30 -29 -16 -47 14 -19 21 19 50 10 50 -16 0 -13 -7 -19
-23 -19 -37 0 -59 -22 -55 -54 4 -37 31 -55 57 -39 14 9 21 9 30 0 8 -8 11 7
11 60 0 76 -13 103 -50 103 -10 0 -26 -7 -34 -16z m62 -101 c-2 -22 -8 -28
-28 -28 -16 0 -26 6 -28 19 -4 21 13 36 41 36 14 0 18 -6 15 -27z"/>
<path d="M2360 861 c-8 -6 -18 -7 -22 -5 -4 3 -8 -42 -8 -100 0 -64 4 -106 10
-106 6 0 10 13 10 29 0 25 3 28 25 23 41 -7 55 13 55 79 0 75 -27 106 -70 80z
m38 -20 c9 -5 12 -25 10 -62 -3 -50 -5 -54 -28 -54 -23 0 -25 4 -28 54 -3 49
6 71 28 71 3 0 11 -4 18 -9z"/>
<path d="M2515 859 c-4 -6 -13 -8 -21 -5 -11 4 -14 -10 -14 -74 0 -47 4 -80
10 -80 6 0 10 28 10 65 0 60 2 66 25 77 14 6 25 15 25 20 0 12 -28 10 -35 -3z"/>
<path d="M2786 848 c-20 -28 -13 -34 15 -15 11 9 28 13 35 10 21 -8 17 -43 -4
-43 -47 0 -80 -58 -50 -88 15 -15 55 -16 64 -1 4 8 9 7 15 -2 5 -9 9 15 9 62
0 45 -5 80 -12 87 -19 19 -55 14 -72 -10z m62 -95 c-2 -22 -8 -28 -28 -28 -16
0 -26 6 -28 19 -4 21 13 36 41 36 14 0 18 -6 15 -27z"/>
<path d="M1530 780 c0 -47 4 -80 10 -80 6 0 10 33 10 80 0 47 -4 80 -10 80 -6
0 -10 -33 -10 -80z"/>
<path d="M2580 780 c0 -47 4 -80 10 -80 6 0 10 33 10 80 0 47 -4 80 -10 80 -6
0 -10 -33 -10 -80z"/>
<path d="M2644 843 c2 -10 12 -46 22 -80 9 -35 22 -63 28 -63 6 0 21 36 33 80
13 52 17 80 9 77 -6 -2 -12 -12 -14 -23 -8 -46 -23 -94 -30 -94 -5 0 -14 27
-20 60 -7 33 -17 60 -23 60 -6 0 -8 -8 -5 -17z"/>
<path d="M1690 780 c0 -5 14 -10 30 -10 17 0 30 5 30 10 0 6 -13 10 -30 10
-16 0 -30 -4 -30 -10z"/>
<path d="M509 759 c-15 -15 -19 -28 -14 -47 17 -73 115 -67 115 7 0 55 -61 80
-101 40z"/>
<path d="M315 704 c-39 -13 -74 -47 -75 -71 0 -10 30 -13 115 -13 73 0 115 4
115 10 0 17 -30 58 -48 65 -48 20 -71 22 -107 9z"/>
<path d="M716 710 c-37 -11 -76 -48 -76 -72 0 -16 10 -18 110 -18 102 0 110 1
110 19 0 21 -53 71 -75 71 -7 0 -19 2 -27 4 -7 2 -26 0 -42 -4z"/>
<path d="M512 610 c-32 -7 -92 -54 -92 -72 0 -4 58 -8 130 -8 72 0 130 3 130
6 0 3 -5 14 -10 25 -21 38 -99 62 -158 49z"/>
</g>
</svg>
